<svg xmlns:x="http://ns.adobe.com/Extensibility/1.0/" xmlns:i="http://ns.adobe.com/AdobeIllustrator/10.0/" xmlns:graph="http://ns.adobe.com/Graphs/1.0/" xmlns="http://www.w3.org/2000/svg" xmlns:xlink="http://www.w3.org/1999/xlink" version="1.1" x="0" y="0" viewBox="5 9 54 46" enable-background="new 0 0 64 64" xml:space="preserve" height="138.78139700733578" width="162.91729213904637" class="icon-icon-0" data-fill-palette-color="accent" id="icon-0"><g fill="#7566d8" data-fill-palette-color="accent"><path d="M58 37H49V32A1 1 0 0 0 48 31H33V27H42A1 1 0 0 0 43 26V10A1 1 0 0 0 42 9H22A1 1 0 0 0 21 10V26A1 1 0 0 0 22 27H31V31H16A1 1 0 0 0 15 32V37H6A1 1 0 0 0 5 38V54A1 1 0 0 0 6 55H26A1 1 0 0 0 27 54V38A1 1 0 0 0 26 37H17V33H47V37H38A1 1 0 0 0 37 38V54A1 1 0 0 0 38 55H58A1 1 0 0 0 59 54V38A1 1 0 0 0 58 37" fill="#7566d8" data-fill-palette-color="accent"></path></g></svg><g></g></g></svg></g></svg></g><defs></defs></svg><rect width="395.52" height="91.40999630133435" fill="none" stroke="none" visibility="hidden"></rect></g></svg></g></svg>