<svg xmlns="http://www.w3.org/2000/svg" version="1.1" xmlns:xlink="http://www.w3.org/1999/xlink" xmlns:svgjs="http://svgjs.dev/svgjs" width="1500" height="344" viewBox="0 0 1500 344"><g transform="matrix(1,0,0,1,0.6367303681521435,1.4687545513916405)"><svg viewBox="0 0 396 91" data-background-color="#ffffff" preserveAspectRatio="xMidYMid meet" height="344" width="1500" xmlns="http://www.w3.org/2000/svg" xmlns:xlink="http://www.w3.org/1999/xlink"><g id="tight-bounds" transform="matrix(1,0,0,1,0.2400000000000091,-0.20499815066716565)"><svg viewBox="0 0 395.52 91.40999630133435" height="91.40999630133435" width="395.52"><g><svg viewBox="0 0 603.4927739545034 139.47530399237246" height="91.40999630133435" width="395.52"><g><rect width="7.22552227267195" height="139.47530399237246" x="181.83227191043892" y="0" fill="#f6a228" opacity="1" stroke-width="0" stroke="transparent" fill-opacity="1" class="rect-yte-0" data-fill-palette-color="primary" rx="1%" id="yte-0" data-palette-color="#f6a228"></rect></g><g transform="matrix(1,0,0,1,207.9727739545034,0.3469534925183382)"><svg viewBox="0 0 395.52 138.78139700733578" height="138.78139700733578" width="395.52"><g id="textblocktransform"><svg viewBox="0 0 395.52 138.78139700733578" height="138.78139700733578" width="395.52" id="textblock"><g><svg viewBox="0 0 395.52 80.12241723594325" height="80.12241723594325" width="395.52"><g transform="matrix(1,0,0,1,0,0)"><svg width="395.52" viewBox="1.95 -36.84 185.83 37.650000000000006" height="80.12241723594325" data-palette-color="#f6a228"><path d="M33.5-16.21L33.5-14.04 30.96-13.79Q30.42-13.77 30.16-13.45 29.91-13.13 29.91-12.74L29.91-12.74 29.91-1.2Q29.91-1.2 28.41-0.7 26.9-0.2 24.51 0.31 22.12 0.81 19.41 0.81L19.41 0.81Q15.23 0.81 11.99-0.63 8.74-2.08 6.51-4.55 4.27-7.03 3.11-10.21 1.95-13.38 1.95-16.85L1.95-16.85Q1.95-22.09 4.14-26.04 6.32-29.98 10.39-32.17 14.45-34.35 20.04-34.35L20.04-34.35Q22.61-34.35 24.78-33.89 26.95-33.42 29.03-32.86L29.03-32.86 29.86-32.64 29.86-24.56 26.86-24.56 26.05-29.05Q25.98-29.49 25.68-29.8 25.39-30.1 25.05-30.25L25.05-30.25Q24.95-30.27 24.76-30.37L24.76-30.37Q24-30.71 22.72-31.13 21.44-31.54 19.85-31.54L19.85-31.54Q16.26-31.54 13.5-29.87 10.74-28.2 9.19-24.98 7.64-21.75 7.64-17.09L7.64-17.09Q7.64-9.89 11.12-5.94 14.6-2 20.46-2L20.46-2Q22.12-2 23.4-2.38 24.68-2.76 24.85-2.76L24.85-2.76 24.85-12.74Q24.85-13.13 24.6-13.45 24.34-13.77 23.8-13.79L23.8-13.79 20.46-14.04 20.46-16.21 33.5-16.21ZM57.54-5.54L57.54-2.49Q55.44-1.2 53.01-0.29 50.58 0.61 48.04 0.61L48.04 0.61Q45.02 0.61 42.37-0.74 39.72-2.1 38.08-4.86 36.45-7.62 36.45-11.79L36.45-11.79Q36.45-15.7 37.96-18.6 39.48-21.51 42.14-23.11 44.8-24.71 48.19-24.71L48.19-24.71Q52.85-24.71 55.2-21.81 57.54-18.92 57.54-14.45L57.54-14.45Q57.54-14.21 57.54-13.81 57.54-13.4 57.49-13.06L57.49-13.06 41.28-13.06Q41.28-11.16 41.68-9.27 42.09-7.37 43.04-5.83 43.99-4.3 45.6-3.37 47.21-2.44 49.63-2.44L49.63-2.44Q51.78-2.44 53.82-3.43 55.86-4.42 57.54-5.54L57.54-5.54ZM41.55-15.31L52.54-15.31 52.54-16.41Q52.54-18.87 51.35-20.56 50.17-22.24 47.68-22.24L47.68-22.24Q45.21-22.24 43.48-20.39 41.75-18.53 41.55-15.31L41.55-15.31ZM77.44-7.25L77.44-7.25Q77.44-3.56 74.9-1.48 72.36 0.61 67.89 0.61L67.89 0.61Q65.6 0.61 63.65 0.13 61.71-0.34 60.96-0.66L60.96-0.66 60.96-7.3 63.5-7.3 64.11-3.05Q64.86-2.56 65.97-2.11 67.08-1.66 68.55-1.66L68.55-1.66Q70.7-1.66 71.87-2.86 73.04-4.05 73.04-5.54L73.04-5.54Q73.04-7.52 71.63-8.53 70.21-9.55 67.6-10.79L67.6-10.79 66.94-11.11Q64.2-12.4 62.75-13.81 61.3-15.21 61.3-17.46L61.3-17.46Q61.3-20.8 63.64-22.75 65.99-24.71 70.31-24.71L70.31-24.71Q72.5-24.71 74.23-24.3 75.95-23.9 76.7-23.56L76.7-23.56 76.7-17.65 74.09-17.65 73.7-21.14Q73.16-21.56 72.11-21.92 71.06-22.29 69.89-22.29L69.89-22.29Q67.84-22.29 66.84-21.35 65.84-20.41 65.84-18.95L65.84-18.95Q65.84-17.26 67.05-16.27 68.26-15.28 71.43-13.84L71.43-13.84Q74.04-12.65 75.74-11.17 77.44-9.69 77.44-7.25ZM95.79-3.05L95.79-3.05 95.79-1.05Q95.79-1.05 94.85-0.63 93.91-0.22 92.39 0.2 90.86 0.61 89.06 0.61L89.06 0.61Q86.25 0.61 84.97-0.72 83.68-2.05 83.68-5L83.68-5 83.68-21.61 80.49-21.61 80.49-23.24 83.9-24.85 86.15-30.15 88.35-30.15 88.35-24.1 95.4-24.1 95.4-21.61 88.35-21.61 88.35-7.64Q88.35-4.66 89.35-3.43 90.35-2.2 92.35-2.2L92.35-2.2Q93.82-2.2 94.8-2.62 95.79-3.05 95.79-3.05ZM131.68-2.15L131.68 0 119.03 0 119.03-2.15 121.89-2.34Q122.4-2.39 122.67-2.73 122.94-3.08 122.94-3.44L122.94-3.44 122.94-16.36 106.48-16.36 106.48-3.44Q106.48-3.08 106.74-2.73 107-2.39 107.53-2.34L107.53-2.34 110.39-2.15 110.39 0 97.74 0 97.74-2.15 100.33-2.34Q100.87-2.39 101.15-2.73 101.43-3.08 101.43-3.44L101.43-3.44 101.43-30.1Q101.43-30.47 101.15-30.8 100.87-31.13 100.33-31.15L100.33-31.15 97.74-31.35 97.74-33.54 110.39-33.54 110.39-31.35 107.53-31.15Q107-31.13 106.74-30.8 106.48-30.47 106.48-30.1L106.48-30.1 106.48-18.85 122.94-18.85 122.94-30.1Q122.94-30.47 122.67-30.8 122.4-31.13 121.89-31.15L121.89-31.15 119.03-31.35 119.03-33.54 131.68-33.54 131.68-31.35 129.09-31.15Q128.55-31.13 128.27-30.8 127.99-30.47 127.99-30.1L127.99-30.1 127.99-3.44Q127.99-3.08 128.27-2.73 128.55-2.39 129.09-2.34L129.09-2.34 131.68-2.15ZM160.68-1.95L160.68 0 152.75 0 152.75-2.86Q151.89-2.2 150.57-1.39 149.26-0.59 147.74 0.01 146.23 0.61 144.74 0.61L144.74 0.61Q141.52 0.61 139.67-1.33 137.83-3.27 137.83-7.5L137.83-7.5 137.83-21.04 134.34-21.04 134.34-22.75 140.49-24.71 142.49-24.71 142.49-8.45Q142.49-5.79 143.58-4.3 144.67-2.81 147.33-2.81L147.33-2.81Q148.86-2.81 150.35-3.33 151.84-3.86 152.75-4.3L152.75-4.3 152.75-21.04 149.23-21.04 149.23-22.75 155.33-24.71 157.38-24.71 157.38-3.2Q157.38-2.73 157.71-2.44 158.04-2.15 158.48-2.1L158.48-2.1 160.68-1.95ZM187.78-13.21L187.78-13.21Q187.78-9.45 186.29-6.46 184.8-3.47 181.63-1.73 178.45 0 173.42 0L173.42 0 166.22 0 166.22-33.25 162.44-33.25 162.44-34.91 168.88-36.84 170.88-36.84 170.88-22.85Q171.74-23.27 173.65-23.99 175.57-24.71 177.77-24.71L177.77-24.71Q181.06-24.71 183.29-23.12 185.51-21.53 186.64-18.91 187.78-16.28 187.78-13.21ZM182.68-12.21L182.68-12.21Q182.68-16.94 180.67-19.35 178.67-21.75 175.03-21.75L175.03-21.75Q174.2-21.75 172.92-21.48 171.64-21.22 170.88-20.95L170.88-20.95 170.88-2.39Q170.88-2.39 171.75-2.37 172.62-2.34 173.32-2.34L173.32-2.34Q177.77-2.34 180.22-4.54 182.68-6.74 182.68-12.21Z" opacity="1" transform="matrix(1,0,0,1,0,0)" fill="#f6a228" class="wordmark-text-0" data-fill-palette-color="primary" id="text-0"></path></svg></g></svg></g><g transform="matrix(1,0,0,1,0,99.03739700733578)"><svg viewBox="0 0 338.1696 39.74399999999999" height="39.74399999999999" width="338.1696"><g transform="matrix(1,0,0,1,0,0)"><svg width="338.1696" viewBox="1.85 -35.5 391.35999999999996 46" height="39.74399999999999" data-palette-color="#7566d8"><path d="M7.75-9.75Q8-7.55 9.55-6.2 11.1-4.85 13.6-4.85L13.6-4.85Q15.7-4.85 17.03-5.55 18.35-6.25 18.95-7.25 19.55-8.25 19.55-9.2L19.55-9.2Q19.55-11.4 18.48-12.88 17.4-14.35 15.83-15.23 14.25-16.1 11.55-17.25L11.55-17.25Q8.6-18.5 6.88-19.53 5.15-20.55 3.93-22.33 2.7-24.1 2.7-26.85L2.7-26.85Q2.7-29.05 3.95-31.03 5.2-33 7.75-34.25 10.3-35.5 14-35.5L14-35.5Q16.45-35.5 18.05-35.15 19.65-34.8 21.3-34L21.3-34 19.55-28.8Q17.75-29.4 16.63-29.65 15.5-29.9 14.05-29.9L14.05-29.9Q11.2-29.9 9.85-28.9 8.5-27.9 8.65-26.35L8.65-26.35Q8.8-25.1 10.18-24.2 11.55-23.3 14.45-22L14.45-22Q17.85-20.5 20.1-19.15 22.35-17.8 23.98-15.45 25.6-13.1 25.6-9.7L25.6-9.7Q25.6-5.25 22.65-2.35 19.7 0.55 13.65 0.55L13.65 0.55Q9.95 0.55 7.33-0.83 4.7-2.2 3.33-4.38 1.95-6.55 1.85-8.9L1.85-8.9 7.75-9.75ZM39.8 6.15Q41.1 6.15 42.12 5.35 43.15 4.55 43.15 2.8L43.15 2.8 43.15-0.1Q43-0.05 42 0.28 41 0.6 39.05 0.6L39.05 0.6Q34.65 0.6 32.27-1.78 29.9-4.15 29.9-8.8L29.9-8.8 29.9-25.05 35.4-25.05 35.4-10.3Q35.4-7.15 36.22-6.03 37.05-4.9 39.05-4.9L39.05-4.9Q40.5-4.9 41.37-5.33 42.25-5.75 42.7-6.93 43.15-8.1 43.15-10.3L43.15-10.3 43.15-18.15Q43.15-19.85 43.97-21.5 44.8-23.15 46.27-24.25 47.75-25.35 49.6-25.5L49.6-25.5 51.65-21Q50.2-20.65 49.42-19.63 48.65-18.6 48.65-17.35L48.65-17.35 48.65 3.05Q48.65 6.3 47.12 8.18 45.6 10.05 41.95 10.5L41.95 10.5 39.8 6.15ZM60.64-6.9Q60.64-6 61.57-5.2 62.49-4.4 64.39-4.4L64.39-4.4Q66.05-4.4 66.94-5.23 67.84-6.05 67.84-7.15L67.84-7.15Q67.84-8.7 66.72-9.45 65.59-10.2 63.09-11.1L63.09-11.1Q60.95-11.8 59.55-12.5 58.14-13.2 57.05-14.6 55.95-16 55.74-18.25L55.74-18.25Q55.59-19.95 56.42-21.68 57.24-23.4 59.22-24.53 61.2-25.65 64.3-25.65L64.3-25.65Q65.89-25.65 67.12-25.33 68.34-25 69.05-24.65 69.75-24.3 69.89-24.2L69.89-24.2 68.3-19.1Q68.19-19.2 67.77-19.48 67.34-19.75 66.44-20 65.55-20.25 64.3-20.25L64.3-20.25Q61.59-20.25 61.59-18.75L61.59-18.75Q61.59-18.45 61.7-18.15L61.7-18.15Q61.84-17.45 62.74-16.98 63.64-16.5 65.39-15.85L65.39-15.85Q67.84-14.95 69.52-14.08 71.19-13.2 72.42-11.48 73.64-9.75 73.64-7.05L73.64-7.05Q73.64-5 72.64-3.23 71.64-1.45 69.57-0.35 67.5 0.75 64.39 0.75L64.39 0.75Q61.55 0.75 59.47-0.23 57.39-1.2 56.32-2.8 55.24-4.4 55.14-6.35L55.14-6.35 60.64-6.9ZM84.69 0.65Q77.09 0.5 77.09-6.6L77.09-6.6 77.09-35 82.69-35 82.69-25.05 87.44-25.05 86.24-19.9 82.69-19.9 82.69-6.6Q82.69-4.9 83.64-4.33 84.59-3.75 86.34-3.75L86.34-3.75 84.69 0.65ZM99.64-27L97.19-30.15Q96.44-31.1 96.44-32.05L96.44-32.05Q96.44-33.3 97.64-33.9L97.64-33.9Q97.94-34.05 98.44-34.05L98.44-34.05Q99.19-34.05 99.92-33.65 100.64-33.25 100.99-32.4L100.99-32.4 103.29-27 99.64-27ZM98.04-8.85L98.04-7.45Q98.04-6.05 98.81-5.28 99.59-4.5 101.09-4.5L101.09-4.5Q103.39-4.5 107.24-6.5L107.24-6.5 109.24-1.75Q107.44-0.6 105.14 0 102.84 0.6 100.54 0.6L100.54 0.6Q96.84 0.6 94.67-1.23 92.49-3.05 92.49-6.7L92.49-6.7 92.49-16.95Q92.49-21 95.02-23.25 97.54-25.5 101.69-25.5L101.69-25.5Q105.84-25.5 108.17-23.28 110.49-21.05 110.49-17.1L110.49-17.1 110.49-9.5 98.04-8.85ZM104.94-17Q104.94-18.5 103.99-19.3 103.04-20.1 101.64-20.1L101.64-20.1Q99.74-20.1 98.89-19.1 98.04-18.1 98.04-16.9L98.04-16.9 98.04-13.9 104.94-14.35 104.94-17ZM142.04 0L142.04-15.2Q142.04-17.9 141.31-19.1 140.59-20.3 138.99-20.3L138.99-20.3Q137.84-20.3 135.89-19.6L135.89-19.6 135.04-19.25Q135.14-18.95 135.19-18.55 135.24-18.15 135.24-17.8L135.24-17.8 135.24 0 129.74 0 129.74-15.05Q129.74-17.55 128.59-18.9 127.44-20.25 125.49-20.25L125.49-20.25Q123.74-20.25 121.84-19.15L121.84-19.15 121.84 0 116.34 0 116.34-25.05 121.19-25.05 121.84-24.7Q123.49-25.45 125.59-25.45L125.59-25.45Q127.29-25.45 128.89-24.88 130.49-24.3 131.69-23.05L131.69-23.05Q132.39-23.45 133.79-24.15L133.79-24.15Q136.74-25.5 139.49-25.5L139.49-25.5Q143.04-25.5 145.29-23.33 147.54-21.15 147.54-17.3L147.54-17.3 147.54 0 142.04 0ZM156.79-8.85L156.79-7.45Q156.79-6.05 157.56-5.28 158.34-4.5 159.84-4.5L159.84-4.5Q162.14-4.5 165.99-6.5L165.99-6.5 167.99-1.75Q166.19-0.6 163.89 0 161.59 0.6 159.29 0.6L159.29 0.6Q155.59 0.6 153.41-1.23 151.24-3.05 151.24-6.7L151.24-6.7 151.24-16.95Q151.24-21 153.76-23.25 156.29-25.5 160.44-25.5L160.44-25.5Q164.59-25.5 166.91-23.28 169.24-21.05 169.24-17.1L169.24-17.1 169.24-9.5 156.79-8.85ZM163.69-17Q163.69-18.5 162.74-19.3 161.79-20.1 160.39-20.1L160.39-20.1Q158.49-20.1 157.64-19.1 156.79-18.1 156.79-16.9L156.79-16.9 156.79-13.9 163.69-14.35 163.69-17ZM188.98 0L188.98-35.05 198.38-35.05Q204.03-35.05 207.01-31.95 209.98-28.85 209.98-23.7L209.98-23.7 209.98-10Q209.98 0 199.38 0L199.38 0 188.98 0ZM204.48-24.2Q204.48-26.95 203.11-28.23 201.73-29.5 198.88-29.5L198.88-29.5 194.48-29.5 194.48-5.05 198.58-5.05Q201.28-5.05 202.88-5.88 204.48-6.7 204.48-9.5L204.48-9.5 204.48-24.2ZM221.18-8.85L221.18-7.45Q221.18-6.05 221.95-5.28 222.73-4.5 224.23-4.5L224.23-4.5Q226.53-4.5 230.38-6.5L230.38-6.5 232.38-1.75Q230.58-0.6 228.28 0 225.98 0.6 223.68 0.6L223.68 0.6Q219.98 0.6 217.8-1.23 215.63-3.05 215.63-6.7L215.63-6.7 215.63-16.95Q215.63-21 218.15-23.25 220.68-25.5 224.83-25.5L224.83-25.5Q228.98-25.5 231.3-23.28 233.63-21.05 233.63-17.1L233.63-17.1 233.63-9.5 221.18-8.85ZM228.08-17Q228.08-18.5 227.13-19.3 226.18-20.1 224.78-20.1L224.78-20.1Q222.88-20.1 222.03-19.1 221.18-18.1 221.18-16.9L221.18-16.9 221.18-13.9 228.08-14.35 228.08-17ZM268.07 0L267.77-0.4Q267.57-0.3 266.82-0.05 266.07 0.2 265.2 0.35 264.32 0.5 263.27 0.5L263.27 0.5Q260.47 0.5 258.07-0.55 255.67-1.6 254.2-3.85 252.72-6.1 252.72-9.45L252.72-9.45 252.72-25.15Q252.72-28.65 253.85-30.78 254.97-32.9 257.07-34.2L257.07-34.2Q259.27-35.45 262.47-35.45L262.47-35.45Q266.37-35.45 269.52-33.8L269.52-33.8 267.87-28.85Q266.52-29.35 265.52-29.55 264.52-29.75 263.32-29.75L263.32-29.75Q260.92-29.75 259.57-28.88 258.22-28 258.22-25.6L258.22-25.6 258.22-9.35Q258.22-6.95 259.5-6 260.77-5.05 263.22-5.05L263.22-5.05Q265.12-5.05 266.45-5.98 267.77-6.9 267.77-9.3L267.77-9.3 267.77-9.75 264.92-9.75 263.17-15 273.27-15 273.27 0 268.07 0ZM283.62-8.85L283.62-7.45Q283.62-6.05 284.4-5.28 285.17-4.5 286.67-4.5L286.67-4.5Q288.97-4.5 292.82-6.5L292.82-6.5 294.82-1.75Q293.02-0.6 290.72 0 288.42 0.6 286.12 0.6L286.12 0.6Q282.42 0.6 280.25-1.23 278.07-3.05 278.07-6.7L278.07-6.7 278.07-16.95Q278.07-21 280.6-23.25 283.12-25.5 287.27-25.5L287.27-25.5Q291.42-25.5 293.75-23.28 296.07-21.05 296.07-17.1L296.07-17.1 296.07-9.5 283.62-8.85ZM290.52-17Q290.52-18.5 289.57-19.3 288.62-20.1 287.22-20.1L287.22-20.1Q285.32-20.1 284.47-19.1 283.62-18.1 283.62-16.9L283.62-16.9 283.62-13.9 290.52-14.35 290.52-17ZM305.32-6.9Q305.32-6 306.24-5.2 307.17-4.4 309.07-4.4L309.07-4.4Q310.72-4.4 311.62-5.23 312.52-6.05 312.52-7.15L312.52-7.15Q312.52-8.7 311.39-9.45 310.27-10.2 307.77-11.1L307.77-11.1Q305.62-11.8 304.22-12.5 302.82-13.2 301.72-14.6 300.62-16 300.42-18.25L300.42-18.25Q300.27-19.95 301.09-21.68 301.92-23.4 303.89-24.53 305.87-25.65 308.97-25.65L308.97-25.65Q310.57-25.65 311.79-25.33 313.02-25 313.72-24.65 314.42-24.3 314.57-24.2L314.57-24.2 312.97-19.1Q312.87-19.2 312.44-19.48 312.02-19.75 311.12-20 310.22-20.25 308.97-20.25L308.97-20.25Q306.27-20.25 306.27-18.75L306.27-18.75Q306.27-18.45 306.37-18.15L306.37-18.15Q306.52-17.45 307.42-16.98 308.32-16.5 310.07-15.85L310.07-15.85Q312.52-14.95 314.19-14.08 315.87-13.2 317.09-11.48 318.32-9.75 318.32-7.05L318.32-7.05Q318.32-5 317.32-3.23 316.32-1.45 314.24-0.35 312.17 0.75 309.07 0.75L309.07 0.75Q306.22 0.75 304.14-0.23 302.07-1.2 300.99-2.8 299.92-4.4 299.82-6.35L299.82-6.35 305.32-6.9ZM329.37 0.65Q321.77 0.5 321.77-6.6L321.77-6.6 321.77-35 327.37-35 327.37-25.05 332.12-25.05 330.92-19.9 327.37-19.9 327.37-6.6Q327.37-4.9 328.32-4.33 329.27-3.75 331.02-3.75L331.02-3.75 329.37 0.65ZM340.16-29.6Q338.96-29.6 338.06-30.5 337.16-31.4 337.16-32.6L337.16-32.6Q337.16-33.75 338.06-34.63 338.96-35.5 340.16-35.5L340.16-35.5Q341.31-35.5 342.19-34.63 343.06-33.75 343.06-32.6L343.06-32.6Q343.06-31.4 342.19-30.5 341.31-29.6 340.16-29.6L340.16-29.6ZM337.26 0L337.26-25.05 342.76-25.05 342.76 0 337.26 0ZM369.61-9.2Q369.61-5 367.31-2.25 365.01 0.5 360.36 0.5L360.36 0.5Q355.71 0.5 353.34-2.27 350.96-5.05 350.96-9.2L350.96-9.2 350.96-15.8Q350.96-20.55 353.39-23.08 355.81-25.6 360.36-25.6L360.36-25.6Q364.71-25.6 367.16-22.98 369.61-20.35 369.61-15.8L369.61-15.8 369.61-9.2ZM364.16-15.8Q364.16-18.45 363.06-19.25 361.96-20.05 360.36-20.05L360.36-20.05Q356.46-20.05 356.46-15.8L356.46-15.8 356.46-8.7Q356.46-6.7 357.56-5.8 358.66-4.9 360.36-4.9L360.36-4.9Q362.01-4.9 363.09-5.85 364.16-6.8 364.16-8.7L364.16-8.7 364.16-15.8ZM387.71 0L387.71-15.75Q387.71-17.75 386.58-18.98 385.46-20.2 383.56-20.2L383.56-20.2Q382.01-20.2 380.21-19.3L380.21-19.3 380.21 0 374.76 0 374.76-25.05 379.61-25.05 380.26-24.75Q382.36-25.45 384.61-25.45L384.61-25.45Q387.11-25.45 388.96-24.55L388.96-24.55Q390.96-23.65 392.08-21.85 393.21-20.05 393.21-17.3L393.21-17.3 393.21 0 387.71 0Z" opacity="1" transform="matrix(1,0,0,1,0,0)" fill="#7566d8" class="slogan-text-1" data-fill-palette-color="secondary" id="text-1"></path></svg></g></svg></g></svg></g></svg></g><g transform="matrix(1,0,0,1,0,0.3469534925183382)"><svg viewBox="0 0 162.91729213904637 138.78139700733578" height="138.78139700733578" width="162.91729213904637"><g><svg xmlns:x="http://ns.adobe.com/Extensibility/1.0/" xmlns:i="http://ns.adobe.com/AdobeIllustrator/10.0/" xmlns:graph="http://ns.adobe.com/Graphs/1.0/" xmlns="http://www.w3.org/2000/svg" xmlns:xlink="http://www.w3.org/1999/xlink" version="1.1" x="0" y="0" viewBox="5 9 54 46" enable-background="new 0 0 64 64" xml:space="preserve" height="138.78139700733578" width="162.91729213904637" class="icon-icon-0" data-fill-palette-color="accent" id="icon-0"><g fill="#7566d8" data-fill-palette-color="accent"><path d="M58 37H49V32A1 1 0 0 0 48 31H33V27H42A1 1 0 0 0 43 26V10A1 1 0 0 0 42 9H22A1 1 0 0 0 21 10V26A1 1 0 0 0 22 27H31V31H16A1 1 0 0 0 15 32V37H6A1 1 0 0 0 5 38V54A1 1 0 0 0 6 55H26A1 1 0 0 0 27 54V38A1 1 0 0 0 26 37H17V33H47V37H38A1 1 0 0 0 37 38V54A1 1 0 0 0 38 55H58A1 1 0 0 0 59 54V38A1 1 0 0 0 58 37" fill="#7566d8" data-fill-palette-color="accent"></path></g></svg><g></g></g></svg></g></svg></g><defs></defs></svg><rect width="395.52" height="91.40999630133435" fill="none" stroke="none" visibility="hidden"></rect></g></svg></g></svg>