<svg xmlns="http://www.w3.org/2000/svg" version="1.1" xmlns:xlink="http://www.w3.org/1999/xlink" xmlns:svgjs="http://svgjs.dev/svgjs" width="1440" height="560" preserveAspectRatio="none" viewBox="0 0 1440 560"><g mask="url(&quot;#SvgjsMask1017&quot;)" fill="none"><path d="M-44.17 -30.51 a13.66 13.66 0 1 0 27.32 0 a13.66 13.66 0 1 0 -27.32 0z" fill="rgb(122, 102, 255)" class="triangle-float3"></path><path d="M108.627,246.456C153.777,245.85,181.195,202.659,204.29,163.858C228.179,123.724,257.049,76.867,233.624,36.46C210.234,-3.885,155.25,-2.223,108.627,-1.155C64.608,-0.146,15.765,4.176,-6.828,41.969C-29.825,80.437,-13.628,127.461,8.407,166.488C30.928,206.375,62.825,247.071,108.627,246.456" fill="rgb(122, 102, 255)" class="triangle-float2"></path><path d="M-93.95 19.28 a113.23 113.23 0 1 0 226.46 0 a113.23 113.23 0 1 0 -226.46 0z" fill="rgb(220, 53, 69)" class="triangle-float2"></path><path d="M1400.995,170.359C1435.375,171.862,1466.014,150.269,1483.482,120.619C1501.238,90.48,1504.917,53.383,1487.924,22.807C1470.467,-8.604,1436.854,-30.147,1400.995,-27.798C1368.144,-25.646,1346.51,3.592,1331.784,33.036C1318.856,58.884,1317.112,88.107,1330.12,113.915C1344.689,142.821,1368.656,168.945,1400.995,170.359" fill="rgb(0, 123, 255)" class="triangle-float3"></path><path d="M1229.12 24.21 a123.09 123.09 0 1 0 246.18 0 a123.09 123.09 0 1 0 -246.18 0z" fill="rgb(246, 162, 40)" class="triangle-float1"></path><path d="M1266.82 -13.5 a47.68 47.68 0 1 0 95.36 0 a47.68 47.68 0 1 0 -95.36 0z" fill="rgba(28, 83, 142, 0.4)" class="triangle-float3"></path><path d="M-74.36820968895927 483.3517040723024L24.379712696176256 619.2665591272936 160.29456775116742 520.518636742158 61.546645366031896 384.60378168716693z" fill="rgb(23, 162, 184)" class="triangle-float3"></path><path d="M-54.63 427.95 a34.58 34.58 0 1 0 69.16 0 a34.58 34.58 0 1 0 -69.16 0z" fill="rgb(255, 193, 7)" class="triangle-float3"></path><path d="M60.60649854528939 635.9128590902891L175.18222303578912 513.0454372182685 52.31480116376846 398.4697127277687-62.260923326731266 521.3371345997894z" fill="rgb(220, 53, 69)" class="triangle-float1"></path><path d="M1499.4439114971628 440.00839492201015L1337.9519465795252 393.70131914475434 1291.6448708022695 555.1932840623919 1453.136835719907 601.5003598396477z" fill="rgb(220, 53, 69)" class="triangle-float2"></path><path d="M1239 462.33 a103.33 103.33 0 1 0 206.66 0 a103.33 103.33 0 1 0 -206.66 0z" fill="rgb(23, 162, 184)" class="triangle-float1"></path><path d="M1344.86,506.801C1361.926,507.54,1380.531,505.143,1389.949,490.892C1400.174,475.42,1399.872,454.475,1389.679,438.983C1380.292,424.716,1361.937,422.534,1344.86,422.364C1327.361,422.189,1307.445,423.054,1298.465,438.074C1289.341,453.335,1296.113,472.523,1306.062,487.26C1314.746,500.123,1329.355,506.13,1344.86,506.801" fill="rgb(23, 162, 184)" class="triangle-float2"></path></g><defs><mask id="SvgjsMask1017"><rect width="1440" height="560" fill="#ffffff"></rect></mask><style>
                @keyframes float1 {
                    0%{transform: translate(0, 0)}
                    50%{transform: translate(-30px, 0)}
                    100%{transform: translate(0, 0)}
                }

                .triangle-float1 {
                    animation: float1 5s infinite;
                }

                @keyframes float2 {
                    0%{transform: translate(0, 0)}
                    50%{transform: translate(-15px, -15px)}
                    100%{transform: translate(0, 0)}
                }

                .triangle-float2 {
                    animation: float2 4s infinite;
                }

                @keyframes float3 {
                    0%{transform: translate(0, 0)}
                    50%{transform: translate(0, -30px)}
                    100%{transform: translate(0, 0)}
                }

                .triangle-float3 {
                    animation: float3 6s infinite;
                }
            </style></defs></svg>